<svg width="50" height="50" viewBox="0 0 50 50" fill="none" xmlns="http://www.w3.org/2000/svg">
<g clip-path="url(#clip0_454_813)">
<path d="M19.0417 25.3879C19.0737 25.4246 19.1129 25.4543 19.1569 25.4752C19.2009 25.4962 19.2486 25.5079 19.2973 25.5097C19.346 25.5115 19.3945 25.5033 19.4399 25.4857C19.4853 25.468 19.5266 25.4413 19.5612 25.4071L23.4491 21.5671C23.4849 21.5317 23.5128 21.4891 23.531 21.4422C23.5491 21.3952 23.5572 21.3449 23.5545 21.2947C23.5519 21.2444 23.5387 21.1952 23.5157 21.1504C23.4927 21.1056 23.4605 21.0661 23.4212 21.0346C21.6099 19.5811 21.2258 17.6692 22.9204 15.768C22.9816 15.7004 23.0145 15.612 23.0124 15.5209C23.0103 15.4298 22.9734 15.3429 22.9092 15.2782L17.2616 9.63456C17.1966 9.56957 17.1089 9.53237 17.017 9.53081C16.9251 9.52926 16.8362 9.56347 16.769 9.62623C15.2683 11.0288 7.63233 18.1623 7.11499 18.7446C7.02952 18.8406 6.98345 18.9653 6.986 19.0938C6.98855 19.2224 7.03953 19.3452 7.12874 19.4377C8.22449 20.5748 11.7371 24.2166 12.4692 24.9294C12.5502 25.0084 12.6577 25.0545 12.7707 25.0585C12.8837 25.0626 12.9943 25.0244 13.0807 24.9514C13.8968 24.2616 16.7377 22.7557 19.0417 25.3879Z" fill="black"/>
<path d="M31.4442 0.45502C30.0102 1.21252 24.1512 4.20035 18.8328 5.36335C18.6166 5.4106 18.4917 5.75502 18.6995 5.83202C20.4952 6.4946 21.0738 7.59452 19.1099 9.19535C18.8567 9.40177 18.9647 9.8291 19.1942 10.0616C20.1114 10.9905 22.4957 13.0107 23.7431 14.3059C23.7624 14.3259 23.7875 14.3393 23.8149 14.3441C23.8423 14.349 23.8706 14.3451 23.8956 14.333C23.9207 14.321 23.9412 14.3013 23.9545 14.2768C23.9677 14.2523 23.9728 14.2243 23.9692 14.1967L23.8935 13.6152C23.6279 12.1307 24.9108 10.3333 26.618 13.795C26.7233 14.0086 27.0604 13.9239 27.1113 13.6912C28.2039 8.7066 30.9538 2.1771 31.625 0.62152C31.6357 0.596741 31.6384 0.569243 31.6328 0.542836C31.6272 0.516428 31.6136 0.492416 31.5937 0.474126C31.5738 0.455835 31.5488 0.444171 31.522 0.440748C31.4952 0.437325 31.4681 0.442313 31.4442 0.45502Z" fill="black"/>
<path d="M0.655092 22.6417L8.62834 31.2867C8.89967 31.581 9.36551 31.7629 9.69726 31.5389C11.5067 30.3173 13.0129 28.5132 13.0129 28.5132C13.1286 28.329 13.1786 28.111 13.1547 27.8948C13.1309 27.6786 13.0346 27.4768 12.8815 27.3222L4.68151 18.8455C4.36484 18.5171 3.84426 18.4205 3.47218 18.6844C1.91043 19.7917 0.558342 21.4358 0.558342 21.4358C0.265758 21.8377 0.349175 22.3098 0.655092 22.6417Z" fill="black"/>
<path d="M49.3118 46.7984C41.3134 41.361 35.4826 35.2796 34.175 33.8718C34.0903 33.7806 33.9825 33.714 33.8631 33.6789C33.7437 33.6438 33.617 33.6416 33.4964 33.6726L31.4167 34.2039C31.3832 34.2124 31.3528 34.2301 31.3287 34.2548C31.3047 34.2796 31.2879 34.3105 31.2803 34.3442C31.2727 34.3779 31.2745 34.413 31.2856 34.4457C31.2967 34.4784 31.3166 34.5074 31.3432 34.5295C32.865 35.7981 40.2206 42.0529 46.136 49.3001C46.2023 49.3815 46.2858 49.4471 46.3806 49.4922C46.4753 49.5373 46.579 49.5607 46.6839 49.5608H48.9899C49.0161 49.5608 49.0416 49.5532 49.0635 49.5389C49.0854 49.5246 49.1027 49.5042 49.1132 49.4803C49.1237 49.4564 49.127 49.4299 49.1227 49.4041C49.1185 49.3783 49.1068 49.3543 49.0891 49.3351L43.1701 43.213C43.153 43.1955 43.1433 43.1722 43.143 43.1477C43.1426 43.1233 43.1516 43.0997 43.1682 43.0817C43.1847 43.0638 43.2075 43.0528 43.2318 43.0512C43.2562 43.0495 43.2803 43.0572 43.2991 43.0727C44.7846 44.2946 47.2525 46.2889 49.4063 47.8609C49.4263 47.8762 49.4502 47.8856 49.4752 47.888C49.5002 47.8905 49.5254 47.8858 49.548 47.8747C49.5705 47.8636 49.5895 47.8463 49.6027 47.825C49.616 47.8036 49.623 47.779 49.623 47.7538V47.3834C49.6228 47.2679 49.5943 47.1542 49.54 47.0523C49.4858 46.9503 49.4075 46.8631 49.3118 46.7984Z" fill="black"/>
<path d="M29.6823 32.8524C29.7365 32.9074 29.8044 32.9471 29.8789 32.9674C29.9535 32.9878 30.0321 32.988 30.1067 32.968L32.1667 32.418C32.21 32.4064 32.2496 32.3837 32.2814 32.352C32.3132 32.3203 32.3361 32.2808 32.3478 32.2374C32.3595 32.1941 32.3596 32.1484 32.3481 32.105C32.3365 32.0616 32.3138 32.022 32.2822 31.9902L29.8257 29.5179C29.8043 29.4964 29.7779 29.4804 29.7488 29.4715C29.7198 29.4626 29.689 29.461 29.6592 29.4668C29.6294 29.4726 29.6015 29.4857 29.5779 29.5049C29.5543 29.5241 29.5359 29.5488 29.5242 29.5768L28.7083 31.524C28.6788 31.5945 28.6708 31.6721 28.6852 31.7471C28.6997 31.8221 28.736 31.8912 28.7896 31.9456L29.6823 32.8524Z" fill="black"/>
<path d="M22.029 26.7194C22.0998 26.7891 22.1952 26.8284 22.2945 26.8287C22.3939 26.8291 22.4895 26.7905 22.5608 26.7213L24.9863 24.3682C25.0573 24.2994 25.0987 24.2056 25.1017 24.1068C25.1047 24.008 25.0691 23.9119 25.0025 23.8388L24.1525 22.9063C24.1178 22.8682 24.0756 22.8376 24.0287 22.8163C23.9817 22.795 23.9309 22.7834 23.8794 22.7823C23.8278 22.7812 23.7766 22.7906 23.7288 22.8099C23.681 22.8292 23.6376 22.8581 23.6013 22.8947L21.1731 25.3408C21.1378 25.3764 21.1099 25.4186 21.0909 25.465C21.072 25.5113 21.0624 25.561 21.0627 25.6111C21.063 25.6612 21.0731 25.7108 21.0926 25.7569C21.1121 25.8031 21.1406 25.8449 21.1763 25.8801L22.029 26.7194Z" fill="black"/>
<path d="M9.52499 10.9778C8.3384 12.0925 9.12499 13.5083 9.61832 14.1731C9.6549 14.2224 9.70163 14.2632 9.75535 14.2928C9.80907 14.3225 9.86852 14.3403 9.9297 14.345C9.99088 14.3496 10.0524 14.3412 10.11 14.32C10.1676 14.2989 10.22 14.2657 10.2637 14.2226L12.7527 11.7698C12.7966 11.7267 12.8307 11.6747 12.8527 11.6173C12.8746 11.56 12.884 11.4985 12.8802 11.4372C12.8763 11.3759 12.8593 11.3161 12.8303 11.2619C12.8012 11.2077 12.7609 11.1605 12.712 11.1233C12.0676 10.6359 10.7033 9.87101 9.52499 10.9778Z" fill="black"/>
<path d="M24.9851 28.1906C25.0437 28.246 25.121 28.2774 25.2017 28.2786C25.2823 28.2798 25.3605 28.2507 25.4208 28.1971L26.7987 26.9727C26.8314 26.9436 26.8579 26.9082 26.8765 26.8685C26.8951 26.8289 26.9054 26.7858 26.9069 26.7421C26.9083 26.6983 26.9008 26.6547 26.8848 26.6139C26.8688 26.5731 26.8447 26.536 26.8139 26.5048L25.8889 25.5683C25.8302 25.5089 25.7508 25.4746 25.6673 25.4725C25.5838 25.4705 25.5027 25.5009 25.4412 25.5573L24.05 26.8337C24.0173 26.8637 23.9912 26.9001 23.9732 26.9406C23.9552 26.9812 23.9458 27.025 23.9455 27.0693C23.9452 27.1137 23.954 27.1576 23.9714 27.1984C23.9889 27.2391 24.0145 27.2759 24.0468 27.3063L24.9851 28.1906Z" fill="black"/>
<path d="M27.4223 30.5822C27.4513 30.6168 27.4887 30.6433 27.531 30.6592C27.5732 30.6751 27.6189 30.6797 27.6635 30.6727C27.708 30.6657 27.75 30.6472 27.7854 30.6191C27.8207 30.591 27.8482 30.5543 27.8651 30.5124L28.609 28.673C28.6348 28.6092 28.6406 28.539 28.6255 28.4718C28.6105 28.4047 28.5753 28.3437 28.5247 28.2969L27.8787 27.6999C27.8324 27.6573 27.7714 27.6343 27.7084 27.6358C27.6454 27.6374 27.5856 27.6634 27.5414 27.7083L26.3032 28.9666C26.2472 29.0236 26.2144 29.0993 26.2112 29.1792C26.208 29.259 26.2346 29.3372 26.2859 29.3984L27.4223 30.5822Z" fill="black"/>
</g>
<defs>
<clipPath id="clip0_454_813">
<rect width="50" height="50" fill="white"/>
</clipPath>
</defs>
</svg>
