<svg width="50" height="50" viewBox="0 0 50 50" xmlns="http://www.w3.org/2000/svg">
<path d="M4.19989 29.9458V27.1196C1.09989 27.4312 1.54009 29.3235 1.54009 29.3235C2.73269 29.9702 4.19989 29.9458 4.19989 29.9458Z"/>
<path d="M45.6001 27.1196V29.9458C45.6001 29.9458 47.0671 29.9702 48.2599 29.3235C48.2599 29.3235 48.7001 27.4312 45.6001 27.1196Z"/>
<path d="M36.0873 30.2634C35.6943 30.8786 35.2661 31.4837 34.7998 32.0751V34.4766C34.7998 34.4766 38.593 33.5532 40.0851 32.2932C40.0851 32.2932 38.3734 30.4786 36.0873 30.2634Z"/>
<path d="M9.71436 32.2929C11.2065 33.5529 14.9997 34.4763 14.9997 34.4763V31.884C14.5916 31.3494 14.2136 30.8039 13.8638 30.25C11.4417 30.3823 9.71436 32.2929 9.71436 32.2929Z"/>
<path d="M21.1863 35.4917C22.316 35.5857 23.5209 35.6403 24.8 35.6403C26.22 35.6403 27.5489 35.5732 28.7844 35.4592C41.8606 27.0652 38.1282 9.63121 38.1282 9.63121C28.5748 11.1132 24.9979 6.08911 24.9979 6.08911C24.9979 6.08911 21.4108 11.1058 11.8606 9.60321C11.8606 9.60321 8.17643 27.1696 21.1863 35.4917ZM15.3408 13.4664C22.3574 14.5255 24.9927 10.9908 24.9927 10.9908C24.9927 10.9908 27.6208 14.531 34.6396 13.487C34.6396 13.487 37.1897 27.9264 24.9693 33.0763C12.7593 27.9003 15.3408 13.4664 15.3408 13.4664Z"/>
<path d="M39.2517 28.0988C38.5456 27.9058 37.9474 27.83 37.4401 27.8391C37.2152 28.3042 36.9732 28.7663 36.7134 29.2243C41.0624 30.277 41.8197 32.7767 41.9117 33.9795C43.6017 35.0732 48.1997 35.168 48.1997 33.761C48.1997 32.3348 48.1997 31.4141 48.1997 30.3082C44.1997 31.8475 42.8755 29.0896 39.2517 28.0988Z"/>
<path d="M12.5393 27.8489C11.99 27.8085 11.3207 27.8759 10.5051 28.0989C6.8812 29.0897 5.5001 31.8477 1.6001 30.3084C1.6001 31.4144 1.6001 32.335 1.6001 33.7612C1.6001 35.1682 6.1549 35.0733 7.8449 33.9797C7.9385 32.7578 8.6946 30.1975 13.2255 29.1755C12.9808 28.7369 12.7524 28.2942 12.5393 27.8489Z"/>
<path d="M9.6001 33.5173V38.8263C9.6001 38.8263 14.7386 41.9493 24.8001 41.9493C34.8616 41.9493 40.0001 38.8263 40.0001 38.8263V33.5173C40.0001 33.5173 34.5133 36.6402 24.8001 36.6402C15.0871 36.6402 9.6001 33.5173 9.6001 33.5173Z"/>
</svg>
