<svg width="50" height="50" viewBox="0 0 50 50" xmlns="http://www.w3.org/2000/svg">
<path d="M19.2608 8.54789C17.1183 11.138 11.4204 18.7126 7.43701 25.5742C7.45551 26.2441 8.08876 26.4051 8.55218 26.6963C14.7723 29.8892 21.4001 32.1972 28.0028 34.4476C28.2803 34.5619 28.4093 34.31 28.5352 34.1197C32.1801 28.4167 35.6817 22.6289 39.6472 17.1344C39.9581 16.7338 39.7228 16.338 39.3084 16.1533C37.4059 15.1855 35.4956 14.2249 33.5123 13.4323C29.0298 11.7698 24.5736 10.0382 20.0867 8.38847C19.8893 8.33881 19.4334 8.33914 19.2608 8.54789ZM27.2602 28.2298C29.137 29.2371 27.9897 31.6048 26.2218 31.6661C22.8142 31.5901 24.3943 26.9651 27.2602 28.2298ZM24.6091 22.1897C24.2349 22.8306 23.7543 23.3437 22.9631 23.4653C20.1243 23.5844 20.6178 19.6529 23.1652 19.6746C23.4608 19.6707 23.7522 19.746 24.009 19.8925C24.2659 20.039 24.4789 20.2515 24.6261 20.5079C24.7733 20.7643 24.8494 21.0555 24.8464 21.3511C24.8434 21.6468 24.7615 21.9363 24.6091 22.1897ZM22.3208 13.8314C22.0564 14.5647 21.5818 15.0924 20.8494 15.3843C19.8014 15.8021 18.4661 15.0317 18.5578 13.7016C18.5798 12.5457 19.3099 11.6932 20.4045 11.5349C21.5722 11.3667 22.7374 12.6751 22.3208 13.8314Z"/>
<path d="M44.4551 27.4568C44.1685 24.5992 43.1607 21.1568 42.083 18.4355C41.8487 17.8438 41.3277 17.8206 40.9455 18.3142C40.2834 19.1693 39.5988 20.0092 38.9801 20.8949C35.8162 25.509 32.8217 30.266 30.1938 35.2063C30.1026 35.3918 30.0592 35.5397 30.1531 35.7451C30.4055 36.2993 30.6208 36.8701 30.8642 37.4284C31.9843 39.8749 32.9902 42.3688 33.9822 44.8694C34.1033 45.217 34.3857 45.6978 34.7976 45.4049C35.0171 45.2419 35.2387 45.0859 35.3576 44.8105C38.4159 39.6568 41.7186 34.5996 44.1242 29.0933C44.3672 28.5713 44.5692 28.0428 44.4551 27.4568ZM38.9665 33.3287C38.2049 34.162 36.7702 34.0453 36.7137 32.6864C36.7925 32.2106 36.9734 31.7575 37.2438 31.3583C37.7027 30.6938 38.7595 29.6623 39.6055 30.238C40.5679 30.8458 39.5832 32.7388 38.9665 33.3287Z"/>
<path d="M27.8884 36.3455C27.857 36.261 27.8076 36.1843 27.7436 36.1207C27.6797 36.0572 27.6027 36.0082 27.518 35.9773C23.8805 34.669 20.1989 33.4784 16.6496 31.9305C14.0329 30.8611 11.3691 29.9035 8.779 28.7671C7.97458 28.4545 7.25075 27.8871 6.405 27.6946C5.98 27.6469 5.71066 27.9918 5.85175 28.3894C6.99758 31.7859 8.84725 34.878 10.4741 38.0565C10.6506 38.4169 10.9371 38.712 11.2922 38.8991C17.4397 42.344 24.2251 44.3904 31.0244 46.1258C31.2666 46.1322 31.4082 46.0191 31.5314 45.8181C31.7739 45.4688 31.4043 45.2019 31.3057 44.8783C30.3781 42.7557 29.6109 40.5687 28.7594 38.4154C28.4868 37.7185 28.1775 37.036 27.8884 36.3455ZM9.93742 32.0817C10.0657 31.8365 10.3041 31.761 10.5472 31.752C11.1174 31.7891 11.5922 31.9895 12.0795 32.2633C14.2602 33.4883 13.0218 34.2644 12.4784 34.1556C11.7382 33.955 9.45691 33.1146 9.93742 32.0817ZM14.3541 38.9749C13.7052 38.9749 12.8937 38.4987 12.2943 37.951C11.8468 37.5419 12.1979 36.8532 12.8249 36.9093C13.4697 37.0593 14.0717 37.4396 14.6572 37.7666C15.0958 38.0114 15.6242 38.9756 14.3541 38.975V38.9749ZM16.3564 35.1894C16.5314 34.7705 16.9064 34.6687 17.3438 34.6705C17.741 34.7138 18.1247 34.8397 18.4703 35.0401C18.8159 35.2406 19.1157 35.5111 19.3505 35.8344C19.8542 36.5524 19.0927 37.0904 18.3834 36.876C17.6784 36.7536 16.0744 36.1084 16.3564 35.1894ZM20.0064 41.2738C19.3458 41.2726 17.2797 40.7618 17.567 39.8321C17.6691 39.4655 18.0218 39.4018 18.364 39.3988C19.1462 39.4738 19.8462 39.8106 20.4693 40.3171C20.8615 40.6025 20.6323 41.275 20.0062 41.2738H20.0064ZM23.7597 37.0946C24.4516 37.1397 25.1108 37.4052 25.6408 37.8523C26.2533 38.3715 25.8752 39.6912 23.1607 38.3119C22.4057 37.9284 23.043 37.088 23.7595 37.0946H23.7597ZM26.4425 43.0228C25.783 43.2165 25.145 42.8375 24.5455 42.6114C23.684 42.1885 24.0304 41.2447 24.9779 41.2745C25.6142 41.3565 26.209 41.635 26.6797 42.071C27.0226 42.3874 26.8835 42.851 26.4422 43.0228H26.4425Z" />
<path d="M47.0979 2.73208C44.6829 4.55283 41.7113 8.07375 38.8464 6.51733C37.4374 5.75208 37.8997 2.97408 37.5323 1.4795C37.5132 1.2865 37.1854 0.866668 37.0128 1.12167C36.5119 1.93833 36.604 6.23708 32.6028 5.33933C32.2374 5.25733 32.2419 5.837 32.5449 6.06492C38.2223 7.50025 42.9185 9.70258 45.1924 15.5149C45.1934 15.5182 45.1944 15.5213 45.1955 15.5246C45.3217 15.8975 45.8805 15.8109 45.8968 15.4176C45.9922 13.1152 47.054 12.5304 48.618 12.3524C48.6917 12.344 48.7606 12.3117 48.8141 12.2603C48.8677 12.209 48.9028 12.1415 48.9143 12.0682C48.9257 11.9949 48.9128 11.9199 48.8774 11.8547C48.8421 11.7895 48.7863 11.7377 48.7187 11.7073C43.6947 9.43325 44.5738 6.851 47.575 3.23067C47.6294 3.16508 47.6578 3.08178 47.6548 2.99662C47.6517 2.91147 47.6175 2.83039 47.5586 2.76883C47.4997 2.70726 47.4202 2.6695 47.3353 2.66273C47.2503 2.65595 47.1659 2.68064 47.0979 2.73208Z" />
<path d="M1.36922 42.0384C6.86705 43.1295 5.6248 46.2025 3.52863 48.6452C3.48138 48.7002 3.45363 48.8324 3.48147 48.8579C3.55087 48.9215 3.6414 48.9572 3.73555 48.9579C5.90588 48.0141 8.25288 47.6305 10.61 47.5719C10.96 47.5506 11.3581 47.6101 11.7155 47.5581C11.7725 47.5488 11.8248 47.5205 11.8637 47.4777C11.9026 47.435 11.9259 47.3803 11.9298 47.3226C11.9336 47.265 11.9178 47.2077 11.885 47.1601C11.8521 47.1126 11.8041 47.0775 11.7488 47.0607C10.681 46.7382 8.44388 45.7916 6.47488 43.1948C4.44538 40.5183 4.38255 38.4546 4.31905 36.2598C4.3113 35.9925 3.90155 35.9752 3.80388 36.2242C3.4678 37.0807 3.54555 38.3811 3.30388 39.3045C3.13172 40.092 1.96772 40.6685 1.36988 41.1176C1.02388 41.3612 0.94905 41.955 1.36922 42.0384Z" />
<path d="M27.6005 5.37164C27.6245 5.46797 27.7322 5.55789 27.862 5.63414C28.2078 5.83354 28.6154 5.8973 29.0056 5.81305C29.3101 5.7493 29.6023 5.61472 29.514 5.33047C29.1796 4.48764 27.4467 4.48822 27.6005 5.37164Z" />
<path d="M15.3228 47.1917C14.2741 47.2137 14.3362 48.1327 15.3327 48.1562C16.3206 48.1243 16.3743 47.1894 15.3228 47.1917Z" />
</svg>
