<svg width="50" height="50" viewBox="0 0 50 50" xmlns="http://www.w3.org/2000/svg">
<g clip-path="url(#clip0_465_1127)">
<path d="M19.8031 6.25001H30.2327H30.7349L30.8117 6.74898C30.8169 6.78246 32.6851 18.428 25.7789 18.6292C22.6655 18.72 20.9796 17.7684 20.0705 15.937C19.2155 14.2147 19.1311 11.7502 19.1813 8.64488C19.1907 8.06664 19.2044 7.47612 19.2185 6.86402L19.2195 6.82449L19.2329 6.25L19.8031 6.25001Z" />
<path fill-rule="evenodd" clip-rule="evenodd" d="M18.0898 9.53266V12.8363C18.3117 13.0537 18.5409 13.2691 18.7757 13.4795C18.9049 14.4147 19.1288 15.3578 19.5456 16.1976C19.5729 16.2527 19.6011 16.3073 19.63 16.3614C19.4968 16.2744 19.3655 16.1847 19.2361 16.0932C18.587 15.6339 17.9682 15.1169 17.3818 14.58C17.1104 14.3315 16.8376 14.0742 16.5816 13.8095L16.5424 13.769L16.332 13.256V7.7749H18.6118C18.6057 8.06173 18.6001 8.34859 18.5955 8.63547C18.5907 8.93325 18.5865 9.23254 18.5842 9.53266H18.0898Z" />
<path fill-rule="evenodd" clip-rule="evenodd" d="M31.9103 12.8363V9.53266H31.6256C31.6196 9.28554 31.61 9.03934 31.5972 8.79464C31.5796 8.45946 31.5568 8.117 31.5259 7.7749H33.668V13.256L33.4576 13.769L33.4184 13.8095C33.1624 14.0742 32.8896 14.3315 32.6182 14.58C32.0318 15.1169 31.4131 15.6339 30.7639 16.0932C30.6348 16.1846 30.5037 16.2742 30.3706 16.361C30.8537 15.4701 31.1726 14.4348 31.3666 13.3508C31.5519 13.1816 31.7334 13.0096 31.9103 12.8363Z" />
<path d="M24.2986 17.9399C24.2986 17.6163 24.0363 17.354 23.7127 17.354C23.3891 17.354 23.1267 17.6163 23.1267 17.9399V22.1442L21.0654 24.4247H28.9352L26.8739 22.1442V18.007C26.8739 17.6834 26.6115 17.4211 26.2879 17.4211C25.9643 17.4211 25.702 17.6834 25.702 18.007V18.5093C25.1972 18.3143 24.7304 18.2899 24.2986 18.3863V17.9399Z" />
<path d="M10.1221 32.564H18.463V25.5964V25.0105H19.049H30.9514H31.5374V25.5964V32.564H39.8783H40.4642V33.1499V43.164V43.75H39.8783H10.1221H9.53613V43.164V33.1499V32.564H10.1221ZM19.049 33.7358H10.7081V42.5781H39.2924V33.7358H30.9515H30.3656V33.1499V26.1824H19.635V33.1499V33.7358H19.049Z" />
<path fill-rule="evenodd" clip-rule="evenodd" d="M17.3245 38.4596C17.412 38.618 17.4564 38.8074 17.4564 39.029C17.4564 39.3059 17.3832 39.5707 17.2392 39.8255C17.0941 40.0792 16.8847 40.2753 16.6122 40.4127C16.3397 40.55 15.9818 40.6187 15.5376 40.6187C15.1055 40.6187 14.7643 40.5677 14.514 40.4669C14.2636 40.365 14.0586 40.2155 13.8969 40.0205C13.7362 39.8244 13.6122 39.5785 13.5257 39.2816L14.8463 39.1065C14.8984 39.3724 14.9793 39.5574 15.0889 39.6604C15.1975 39.7624 15.3371 39.8144 15.5054 39.8144C15.6827 39.8144 15.8312 39.7491 15.9486 39.6195C16.066 39.4898 16.1258 39.3159 16.1258 39.0999C16.1258 38.8794 16.0682 38.7088 15.9552 38.587C15.8411 38.4662 15.6871 38.4053 15.4922 38.4053C15.3892 38.4053 15.2462 38.4319 15.0646 38.4828L15.1321 37.539C15.2063 37.55 15.2629 37.5556 15.3038 37.5556C15.4778 37.5556 15.6218 37.5002 15.7381 37.3894C15.8533 37.2797 15.9109 37.1479 15.9109 36.9972C15.9109 36.8521 15.8677 36.7358 15.7813 36.6494C15.6949 36.563 15.5764 36.5198 15.4246 36.5198C15.2684 36.5198 15.1421 36.5674 15.0446 36.6605C14.9471 36.7546 14.8818 36.9197 14.8463 37.1557L13.5967 36.9319C13.7008 36.5342 13.9002 36.2284 14.196 36.0168C14.4918 35.8052 14.9094 35.6989 15.4501 35.6989C16.0715 35.6989 16.5202 35.8141 16.7972 36.0456C17.0741 36.2772 17.2126 36.5685 17.2126 36.9186C17.2126 37.1246 17.1561 37.3107 17.0442 37.4769C16.9312 37.6442 16.7617 37.7904 16.5346 37.9156C16.7185 37.961 16.8592 38.0142 16.9567 38.074C17.114 38.1715 17.237 38.3 17.3245 38.4596ZM10.3726 33.5579V42.9215H39.7809V33.4561H31.3179H30.7319V32.8702V25.7552L29.2081 25.7552H25.0004L20.7928 25.7551L19.2689 25.7552V32.9719V33.5579H18.683H10.3726ZM32.9835 40.5783C33.029 40.1861 33.1675 39.8183 33.3979 39.4727C33.6283 39.1281 34.0603 38.7204 34.694 38.2507C35.0818 37.9638 35.3288 37.7445 35.4374 37.596C35.546 37.4464 35.6002 37.3047 35.6002 37.1706C35.6002 37.0255 35.546 36.9014 35.4396 36.7984C35.3321 36.6965 35.197 36.6444 35.0353 36.6444C34.8657 36.6444 34.7284 36.6975 34.6209 36.8039C34.5146 36.9091 34.4426 37.0964 34.4049 37.3656L33.081 37.2581C33.1331 36.8859 33.2284 36.5956 33.3669 36.3863C33.5053 36.178 33.7003 36.0173 33.9529 35.9066C34.2044 35.7947 34.5533 35.7393 34.9998 35.7393C35.464 35.7393 35.8262 35.7925 36.0854 35.8977C36.3436 36.0041 36.5474 36.1669 36.6948 36.3863C36.8432 36.6067 36.9174 36.8527 36.9174 37.1252C36.9174 37.4154 36.8321 37.6924 36.6626 37.9561C36.4931 38.2197 36.1841 38.51 35.7365 38.8257C35.4695 39.0096 35.2923 39.1381 35.2025 39.2123C35.1128 39.2854 35.0064 39.3818 34.8857 39.5004H36.9495V40.5783L32.9835 40.5783ZM26.0504 32.1564H24.7133V28.9858C24.4973 29.1497 24.2879 29.2827 24.0852 29.3846C23.8835 29.4865 23.6298 29.584 23.3241 29.677V28.5925C23.775 28.4474 24.1239 28.2734 24.3732 28.0707C24.6214 27.8669 24.8163 27.6154 24.957 27.3174H26.0504L26.0504 32.1564Z" />
</g>
<defs>
<clipPath id="clip0_465_1127">
<rect width="50" height="50" />
</clipPath>
</defs>
</svg>
